<svg xmlns="http://www.w3.org/2000/svg" xmlns:xlink="http://www.w3.org/1999/xlink" width="1920" zoomAndPan="magnify" viewBox="0 0 1440 809.999993" height="1080" preserveAspectRatio="xMidYMid meet" version="1.2"><defs><clipPath id="78ab6a1841"><path d="M 0 0 L 451.5 0 L 451.5 345 L 0 345 Z M 0 0 "/></clipPath><clipPath id="2cf6acbd1f"><path d="M 0 0 L 451.253906 0 L 451.253906 345 L 0 345 Z M 0 0 "/></clipPath><clipPath id="1ea1ae95dd"><rect x="0" width="452" y="0" height="345"/></clipPath><clipPath id="b674aa8e0e"><path d="M 988.738281 466.675781 L 1440 466.675781 L 1440 810 L 988.738281 810 Z M 988.738281 466.675781 "/></clipPath><clipPath id="e2d3c5f747"><path d="M 0.738281 0.886719 L 452 0.886719 L 452 344 L 0.738281 344 Z M 0.738281 0.886719 "/></clipPath><clipPath id="fd3e90e98a"><rect x="0" width="452" y="0" height="344"/></clipPath><clipPath id="edcecdf89b"><path d="M 237.480469 142.09375 L 343.78125 142.09375 L 343.78125 248.394531 L 237.480469 248.394531 Z M 237.480469 142.09375 "/></clipPath><clipPath id="f9dedbfab5"><path d="M 290.628906 142.09375 C 261.277344 142.09375 237.480469 165.890625 237.480469 195.246094 C 237.480469 224.597656 261.277344 248.394531 290.628906 248.394531 C 319.984375 248.394531 343.78125 224.597656 343.78125 195.246094 C 343.78125 165.890625 319.984375 142.09375 290.628906 142.09375 Z M 290.628906 142.09375 "/></clipPath><clipPath id="9e3bdc8d2c"><path d="M 0.480469 0.09375 L 106.78125 0.09375 L 106.78125 106.394531 L 0.480469 106.394531 Z M 0.480469 0.09375 "/></clipPath><clipPath id="1aa8c1a80a"><path d="M 53.628906 0.09375 C 24.277344 0.09375 0.480469 23.890625 0.480469 53.246094 C 0.480469 82.597656 24.277344 106.394531 53.628906 106.394531 C 82.984375 106.394531 106.78125 82.597656 106.78125 53.246094 C 106.78125 23.890625 82.984375 0.09375 53.628906 0.09375 Z M 53.628906 0.09375 "/></clipPath><clipPath id="0ffbec413b"><rect x="0" width="107" y="0" height="107"/></clipPath><clipPath id="e5c1827a3f"><path d="M 1135.402344 611.226562 L 1188.550781 611.226562 L 1188.550781 664.375 L 1135.402344 664.375 Z M 1135.402344 611.226562 "/></clipPath><clipPath id="c1eb9c178b"><path d="M 1161.976562 611.226562 C 1147.300781 611.226562 1135.402344 623.125 1135.402344 637.800781 C 1135.402344 652.476562 1147.300781 664.375 1161.976562 664.375 C 1176.65625 664.375 1188.550781 652.476562 1188.550781 637.800781 C 1188.550781 623.125 1176.65625 611.226562 1161.976562 611.226562 Z M 1161.976562 611.226562 "/></clipPath><clipPath id="a6b68ff0aa"><path d="M 0.402344 0.226562 L 53.550781 0.226562 L 53.550781 53.375 L 0.402344 53.375 Z M 0.402344 0.226562 "/></clipPath><clipPath id="8a131179c9"><path d="M 26.976562 0.226562 C 12.300781 0.226562 0.402344 12.125 0.402344 26.800781 C 0.402344 41.476562 12.300781 53.375 26.976562 53.375 C 41.65625 53.375 53.550781 41.476562 53.550781 26.800781 C 53.550781 12.125 41.65625 0.226562 26.976562 0.226562 Z M 26.976562 0.226562 "/></clipPath><clipPath id="65e1b42d18"><rect x="0" width="54" y="0" height="54"/></clipPath><clipPath id="6ed57f1005"><path d="M 1161.976562 488.03125 L 1239.472656 488.03125 L 1239.472656 565.527344 L 1161.976562 565.527344 Z M 1161.976562 488.03125 "/></clipPath><clipPath id="842c373fae"><path d="M 1200.722656 488.03125 C 1179.324219 488.03125 1161.976562 505.378906 1161.976562 526.78125 C 1161.976562 548.179688 1179.324219 565.527344 1200.722656 565.527344 C 1222.125 565.527344 1239.472656 548.179688 1239.472656 526.78125 C 1239.472656 505.378906 1222.125 488.03125 1200.722656 488.03125 Z M 1200.722656 488.03125 "/></clipPath><clipPath id="c564d7badf"><path d="M 0.976562 0.03125 L 78.472656 0.03125 L 78.472656 77.527344 L 0.976562 77.527344 Z M 0.976562 0.03125 "/></clipPath><clipPath id="d2fe27e17e"><path d="M 39.722656 0.03125 C 18.324219 0.03125 0.976562 17.378906 0.976562 38.78125 C 0.976562 60.179688 18.324219 77.527344 39.722656 77.527344 C 61.125 77.527344 78.472656 60.179688 78.472656 38.78125 C 78.472656 17.378906 61.125 0.03125 39.722656 0.03125 Z M 39.722656 0.03125 "/></clipPath><clipPath id="eabbccd151"><rect x="0" width="79" y="0" height="78"/></clipPath></defs><g id="22d7ef9581"><rect x="0" width="1440" y="0" height="809.999993" style="fill:#ffffff;fill-opacity:1;stroke:none;"/><rect x="0" width="1440" y="0" height="809.999993" style="fill:#e1fede;fill-opacity:1;stroke:none;"/><path style=" stroke:none;fill-rule:nonzero;fill:#b1f7aa;fill-opacity:1;" d="M 1002.0625 -54.640625 C 1023.296875 -94.984375 1072.367188 -97.34375 1113.535156 -93.570312 C 1159.542969 -89.320312 1183.253906 -101.589844 1222.0625 -124.121094 C 1253.558594 -142.40625 1282.695312 -141.816406 1316.078125 -124.710938 C 1356.421875 -103.949219 1348.164062 -66.792969 1380.839844 -43.199219 C 1411.15625 -21.257812 1456.925781 -31.046875 1489.132812 -10.757812 C 1521.453125 9.648438 1530.183594 44.917969 1528.414062 81.371094 C 1525.9375 131.03125 1500.335938 177.511719 1509.421875 227.878906 C 1516.734375 268.460938 1559.082031 310.101562 1537.96875 352.921875 C 1498.449219 433.019531 1375.0625 365.898438 1311.597656 377.574219 C 1242.941406 390.316406 1138.898438 466.402344 1072.839844 398.808594 C 1043.585938 368.964844 1059.390625 321.425781 1058.800781 284.976562 C 1057.976562 234.25 1040.636719 218.914062 1005.246094 185.886719 C 971.15625 154.152344 944.140625 138.347656 957.589844 90.335938 C 965.609375 61.550781 1004.773438 55.183594 1012.089844 36.191406 C 1020.9375 12.480469 989.910156 -31.757812 1002.0625 -54.640625 Z M 1002.0625 -54.640625 "/><path style=" stroke:none;fill-rule:nonzero;fill:#064e3b;fill-opacity:1;" d="M 1147.746094 -139.011719 C 1168.164062 -177.8125 1215.359375 -180.082031 1254.953125 -176.449219 C 1299.195312 -172.367188 1322 -184.164062 1359.324219 -205.832031 C 1389.613281 -223.417969 1417.632812 -222.851562 1449.738281 -206.402344 C 1488.539062 -186.433594 1480.597656 -150.699219 1512.023438 -128.007812 C 1541.179688 -106.90625 1585.195312 -116.324219 1616.167969 -96.8125 C 1647.25 -77.183594 1655.644531 -43.265625 1653.945312 -8.207031 C 1651.5625 39.550781 1626.945312 84.25 1635.679688 132.691406 C 1642.710938 171.71875 1683.441406 211.765625 1663.132812 252.945312 C 1625.128906 329.976562 1506.464844 265.425781 1445.429688 276.65625 C 1379.402344 288.910156 1279.34375 362.082031 1215.8125 297.078125 C 1187.675781 268.375 1202.878906 222.65625 1202.3125 187.601562 C 1201.519531 138.820312 1184.839844 124.070312 1150.808594 92.304688 C 1118.019531 61.789062 1092.042969 46.585938 1104.976562 0.414062 C 1112.6875 -27.269531 1150.351562 -33.394531 1157.386719 -51.660156 C 1165.894531 -74.460938 1136.058594 -117.003906 1147.746094 -139.011719 Z M 1147.746094 -139.011719 "/><g clip-rule="nonzero" clip-path="url(#78ab6a1841)"><g transform="matrix(1,0,0,1,0,0.000000000000039746)"><g clip-path="url(#1ea1ae95dd)"><path style=" stroke:none;fill-rule:nonzero;fill:#064e3b;fill-opacity:1;" d="M 51.34375 155.621094 C 54.753906 164.777344 54.882812 171.222656 53.371094 176.761719 C 52.898438 178.484375 51.042969 184.589844 43.820312 191.523438 C 33.742188 201.191406 14.496094 211.253906 0 209.164062 L 0 283.269531 C 18.050781 282.175781 39.941406 275.585938 57.910156 263.324219 C 66.171875 257.695312 86.363281 243.933594 93.625 219.015625 C 98.035156 203.890625 96.164062 189.851562 94.496094 177.328125 C 93.019531 166.304688 91.507812 164.460938 84.945312 139.691406 C 77.878906 113.011719 74.355469 99.476562 74.8125 90.175781 C 75.105469 84.203125 76.144531 63.257812 91.035156 46.15625 C 105.046875 30.054688 123.554688 26.304688 139.972656 22.988281 C 170.78125 16.753906 196.644531 22.910156 214.390625 27.332031 C 232.992188 31.960938 229.429688 33.566406 264.199219 44.421875 C 303.441406 56.667969 316.949219 57.417969 328.765625 56.285156 C 340.378906 55.179688 355.246094 53.535156 366.691406 42.089844 C 376.742188 32.039062 379.058594 19.53125 380.582031 10.53125 C 380.582031 10.53125 381.265625 6.492188 381.515625 0.0078125 L 0.0117188 0.0078125 L 0.0117188 96.398438 C 3.984375 100.316406 9.617188 105.921875 17.773438 113.90625 C 37.03125 132.796875 45.871094 140.914062 51.34375 155.621094 Z M 51.34375 155.621094 "/><g clip-rule="nonzero" clip-path="url(#2cf6acbd1f)"><path style=" stroke:none;fill-rule:nonzero;fill:#818386;fill-opacity:1;" d="M 96.21875 330.007812 C 127.789062 318.773438 149.390625 302.371094 157.023438 283.820312 C 157.835938 281.847656 164.941406 263.835938 164.480469 239.605469 C 164.308594 230.566406 162.730469 217.242188 146.207031 173.316406 C 142.628906 163.816406 139.617188 156.238281 136.960938 149.542969 C 129.304688 130.273438 125.449219 120.601562 123.765625 103.578125 C 122.554688 91.332031 123.027344 81.097656 125.199219 73.175781 C 126.960938 66.707031 129.421875 63.230469 131.117188 61.191406 C 135.722656 55.65625 142.0625 51.535156 149.984375 48.957031 C 156.3125 46.90625 161.96875 46.40625 164.375 46.183594 C 165.941406 46.039062 167.46875 45.972656 168.96875 45.972656 C 179.976562 45.972656 189.199219 49.5625 200.511719 53.957031 C 211.550781 58.246094 218.417969 62.273438 228.796875 68.363281 C 231.046875 69.679688 233.363281 71.046875 235.96875 72.546875 C 260.660156 86.832031 273.050781 94.003906 279.800781 96.210938 C 307.664062 105.316406 333.449219 100.039062 352.285156 96.1875 C 360.375 94.527344 372.609375 92.027344 387.410156 85.253906 C 396.644531 81.019531 424.757812 68.140625 439.191406 44.460938 C 439.230469 44.378906 443.859375 36.683594 446.820312 23.464844 C 448.1875 17.359375 449.332031 9.414062 449.292969 0.0078125 L 451.214844 0.0078125 C 451.253906 8.164062 450.398438 16.1875 448.675781 23.871094 C 445.648438 37.394531 441.019531 45.117188 440.820312 45.433594 C 433.453125 57.523438 422.640625 66.835938 412.5 73.652344 C 402.355469 80.480469 392.882812 84.808594 388.199219 86.964844 C 373.203125 93.832031 360.851562 96.355469 352.667969 98.042969 C 343.523438 99.910156 332.132812 102.238281 319.648438 102.921875 C 304.980469 103.710938 291.757812 102.121094 279.222656 98.015625 C 272.277344 95.753906 259.832031 88.542969 235.03125 74.191406 C 232.429688 72.675781 230.101562 71.324219 227.851562 69.992188 C 217.550781 63.957031 210.734375 59.957031 199.84375 55.71875 C 186.726562 50.617188 177.253906 46.933594 164.558594 48.0625 C 150.167969 49.339844 139.40625 54.15625 132.578125 62.402344 C 126.054688 70.257812 123.726562 84.058594 125.644531 103.410156 C 127.316406 120.167969 131.132812 129.757812 138.722656 148.859375 C 141.378906 155.554688 144.40625 163.148438 147.984375 172.65625 C 164.625 216.859375 166.203125 230.371094 166.386719 239.566406 C 166.574219 248.839844 165.679688 258.261719 163.746094 267.5625 C 161.875 276.546875 159.652344 282.425781 158.785156 284.53125 C 154.785156 294.238281 147.128906 303.355469 136 311.65625 C 125.449219 319.523438 112.28125 326.300781 96.863281 331.785156 C 72.472656 340.46875 44.136719 345.175781 16.613281 345.175781 C 15.140625 345.175781 13.667969 345.164062 12.207031 345.136719 C 8.089844 345.058594 4.011719 344.875 0 344.597656 L 0 342.78125 C 34.296875 345.203125 69.132812 339.636719 96.21875 330.007812 Z M 96.21875 330.007812 "/></g></g></g></g><g clip-rule="nonzero" clip-path="url(#b674aa8e0e)"><g transform="matrix(1,0,0,1,988,466)"><g clip-path="url(#fd3e90e98a)"><path style=" stroke:none;fill-rule:nonzero;fill:#064e3b;fill-opacity:1;" d="M 400.648438 190.265625 C 397.242188 181.109375 397.109375 174.664062 398.621094 169.125 C 399.097656 167.402344 400.953125 161.296875 408.171875 154.367188 C 418.25 144.695312 437.496094 134.632812 451.992188 136.722656 L 451.992188 62.621094 C 433.945312 63.710938 412.054688 70.304688 394.085938 82.5625 C 385.824219 88.195312 365.628906 101.953125 358.367188 126.871094 C 353.960938 142 355.828125 156.035156 357.5 168.558594 C 358.972656 179.585938 360.484375 181.425781 367.050781 206.199219 C 374.113281 232.875 377.640625 246.414062 377.179688 255.714844 C 376.890625 261.6875 375.851562 282.628906 360.960938 299.730469 C 346.949219 315.835938 328.4375 319.582031 312.019531 322.898438 C 281.210938 329.132812 255.347656 322.976562 237.601562 318.558594 C 219 313.925781 222.566406 312.320312 187.796875 301.46875 C 148.554688 289.222656 135.042969 288.472656 123.230469 289.601562 C 111.613281 290.707031 96.746094 292.351562 85.300781 303.796875 C 75.25 313.847656 72.9375 326.359375 71.410156 335.355469 C 71.410156 335.355469 70.726562 339.394531 70.476562 345.882812 L 451.980469 345.882812 L 451.980469 249.492188 C 448.007812 245.570312 442.378906 239.96875 434.222656 231.980469 C 414.960938 213.089844 406.121094 204.972656 400.648438 190.265625 Z M 400.648438 190.265625 "/><g clip-rule="nonzero" clip-path="url(#e2d3c5f747)"><path style=" stroke:none;fill-rule:nonzero;fill:#818386;fill-opacity:1;" d="M 355.777344 15.878906 C 324.203125 27.113281 302.601562 43.519531 294.972656 62.066406 C 294.15625 64.042969 287.050781 82.050781 287.511719 106.28125 C 287.683594 115.320312 289.261719 128.648438 305.785156 172.574219 C 309.363281 182.070312 312.375 189.648438 315.035156 196.34375 C 322.691406 215.617188 326.542969 225.285156 328.230469 242.308594 C 329.4375 254.558594 328.964844 264.792969 326.792969 272.710938 C 325.03125 279.183594 322.570312 282.65625 320.875 284.695312 C 316.269531 290.234375 309.929688 294.351562 302.011719 296.929688 C 295.683594 298.980469 290.027344 299.480469 287.617188 299.707031 C 286.050781 299.851562 284.527344 299.917969 283.027344 299.917969 C 272.015625 299.917969 262.792969 296.324219 251.480469 291.929688 C 240.441406 287.640625 233.574219 283.617188 223.195312 277.527344 C 220.945312 276.210938 218.632812 274.84375 216.027344 273.34375 C 191.335938 259.054688 178.941406 251.886719 172.191406 249.675781 C 144.332031 240.574219 118.546875 245.847656 99.707031 249.703125 C 91.617188 251.359375 79.382812 253.859375 64.582031 260.632812 C 55.347656 264.871094 27.234375 277.75 12.804688 301.429688 C 12.765625 301.507812 8.132812 309.203125 5.171875 322.425781 C 3.804688 328.527344 2.660156 336.476562 2.699219 345.882812 L 0.78125 345.882812 C 0.738281 337.726562 1.59375 329.699219 3.320312 322.015625 C 6.34375 308.492188 10.976562 300.769531 11.171875 300.457031 C 18.539062 288.367188 29.351562 279.050781 39.496094 272.238281 C 49.636719 265.410156 59.109375 261.082031 63.792969 258.925781 C 78.789062 252.058594 91.144531 249.53125 99.324219 247.847656 C 108.46875 245.980469 119.863281 243.652344 132.347656 242.96875 C 147.015625 242.175781 160.234375 243.769531 172.773438 247.875 C 179.71875 250.136719 192.164062 257.34375 216.960938 271.699219 C 219.566406 273.210938 221.894531 274.566406 224.144531 275.894531 C 234.445312 281.933594 241.257812 285.933594 252.152344 290.167969 C 265.265625 295.273438 274.738281 298.957031 287.433594 297.824219 C 301.824219 296.546875 312.585938 291.734375 319.414062 283.484375 C 325.941406 275.632812 328.269531 261.832031 326.347656 242.480469 C 324.675781 225.71875 320.863281 216.128906 313.269531 197.027344 C 310.613281 190.332031 307.589844 182.742188 304.007812 173.230469 C 287.367188 129.027344 285.789062 115.519531 285.605469 106.324219 C 285.421875 97.046875 286.316406 87.628906 288.25 78.328125 C 290.117188 69.34375 292.339844 63.460938 293.210938 61.359375 C 297.207031 51.648438 304.863281 42.53125 315.996094 34.230469 C 326.542969 26.363281 339.714844 19.589844 355.132812 14.105469 C 379.519531 5.421875 407.859375 0.710938 435.378906 0.710938 C 436.851562 0.710938 438.324219 0.726562 439.785156 0.75 C 443.902344 0.828125 447.980469 1.015625 451.992188 1.289062 L 451.992188 3.105469 C 417.699219 0.683594 382.863281 6.25 355.777344 15.878906 Z M 355.777344 15.878906 "/></g></g></g></g><g clip-rule="nonzero" clip-path="url(#edcecdf89b)"><g clip-rule="nonzero" clip-path="url(#f9dedbfab5)"><g transform="matrix(1,0,0,1,237,142)"><g clip-path="url(#0ffbec413b)"><g clip-rule="nonzero" clip-path="url(#9e3bdc8d2c)"><g clip-rule="nonzero" clip-path="url(#1aa8c1a80a)"><path style=" stroke:none;fill-rule:nonzero;fill:#064e3b;fill-opacity:1;" d="M 0.480469 0.09375 L 106.78125 0.09375 L 106.78125 106.394531 L 0.480469 106.394531 Z M 0.480469 0.09375 "/></g></g></g></g></g></g><g clip-rule="nonzero" clip-path="url(#e5c1827a3f)"><g clip-rule="nonzero" clip-path="url(#c1eb9c178b)"><g transform="matrix(1,0,0,1,1135,611)"><g clip-path="url(#65e1b42d18)"><g clip-rule="nonzero" clip-path="url(#a6b68ff0aa)"><g clip-rule="nonzero" clip-path="url(#8a131179c9)"><path style=" stroke:none;fill-rule:nonzero;fill:#b1f7aa;fill-opacity:1;" d="M 0.402344 0.226562 L 53.550781 0.226562 L 53.550781 53.375 L 0.402344 53.375 Z M 0.402344 0.226562 "/></g></g></g></g></g></g><g clip-rule="nonzero" clip-path="url(#6ed57f1005)"><g clip-rule="nonzero" clip-path="url(#842c373fae)"><g transform="matrix(1,0,0,1,1161,488)"><g clip-path="url(#eabbccd151)"><g clip-rule="nonzero" clip-path="url(#c564d7badf)"><g clip-rule="nonzero" clip-path="url(#d2fe27e17e)"><path style=" stroke:none;fill-rule:nonzero;fill:#b1f7aa;fill-opacity:1;" d="M 0.976562 0.03125 L 78.472656 0.03125 L 78.472656 77.527344 L 0.976562 77.527344 Z M 0.976562 0.03125 "/></g></g></g></g></g></g></g></svg>