<svg xmlns="http://www.w3.org/2000/svg" xmlns:xlink="http://www.w3.org/1999/xlink" width="2380" zoomAndPan="magnify" viewBox="0 0 1784.88 1784.99993" height="2380" preserveAspectRatio="xMidYMid meet" version="1.2"><defs><clipPath id="d59b26a95b"><path d="M 0 0.0585938 L 1784.761719 0.0585938 L 1784.761719 1784.9375 L 0 1784.9375 Z M 0 0.0585938 "/></clipPath><clipPath id="dde0eab6f6"><path d="M 0 0.0585938 L 1784.761719 0.0585938 L 1784.761719 1784.9375 L 0 1784.9375 Z M 0 0.0585938 "/></clipPath><clipPath id="5da58c90ca"><path d="M 3 0.0585938 L 1778 0.0585938 L 1778 1774 L 3 1774 Z M 3 0.0585938 "/></clipPath><clipPath id="6e774bba19"><path d="M 0 0.0585938 L 1784.761719 0.0585938 L 1784.761719 1784.9375 L 0 1784.9375 Z M 0 0.0585938 "/></clipPath><clipPath id="63dbd0bdae"><rect x="0" width="1785" y="0" height="1785"/></clipPath></defs><g id="c21a039c40"><g clip-rule="nonzero" clip-path="url(#d59b26a95b)"><path style=" stroke:none;fill-rule:nonzero;fill:#ffffff;fill-opacity:1;" d="M 0 0.0585938 L 1784.878906 0.0585938 L 1784.878906 1784.941406 L 0 1784.941406 Z M 0 0.0585938 "/><g transform="matrix(1,0,0,1,0,-0.000000000000097387)"><g clip-path="url(#63dbd0bdae)"><g clip-rule="nonzero" clip-path="url(#dde0eab6f6)"><path style=" stroke:none;fill-rule:nonzero;fill:#ffffff;fill-opacity:1;" d="M 0 0.0585938 L 1785 0.0585938 L 1785 1785.058594 L 0 1785.058594 Z M 0 0.0585938 "/><rect x="0" width="1785" height="1785" y="0" style="fill:#8d8c8d;fill-opacity:1;stroke:none;"/></g><g clip-rule="nonzero" clip-path="url(#5da58c90ca)"><path style=" stroke:none;fill-rule:nonzero;fill:#ffffff;fill-opacity:1;" d="M 3.980469 0.175781 L 1777.785156 0.175781 L 1777.785156 1773.925781 L 3.980469 1773.925781 Z M 3.980469 0.175781 "/></g><g clip-rule="nonzero" clip-path="url(#6e774bba19)"><path style="fill:none;stroke-width:5;stroke-linecap:butt;stroke-linejoin:miter;stroke:#000000;stroke-opacity:1;stroke-miterlimit:10;" d="M 136.759785 191.309695 L 450.039879 191.309695 L 450.039879 504.589836 L 136.759785 504.589836 Z M 136.759785 191.309695 " transform="matrix(5.662041,0,0,5.661865,-770.359024,-1082.993967)"/></g><path style=" stroke:none;fill-rule:nonzero;fill:#010202;fill-opacity:1;" d="M 1144.148438 909.019531 C 1083.054688 908.964844 1034.019531 893.621094 990.367188 861.914062 C 942.351562 827.035156 911.664062 780.269531 897.621094 722.746094 C 892.074219 699.925781 889.808594 676.601562 891.394531 653.160156 C 893.714844 619.867188 900.453125 587.652344 913.984375 556.796875 C 927.007812 527.070312 944.558594 500.6875 967.945312 478.378906 C 989.289062 457.996094 1013.75 442.199219 1041.265625 431.101562 C 1058.988281 423.96875 1077.164062 418.589844 1095.851562 414.910156 C 1102.925781 413.492188 1110.230469 412.359375 1117.421875 412.472656 C 1137.183594 412.757812 1157.167969 412.304688 1176.703125 414.796875 C 1193.125 416.949219 1209.375 421.988281 1225.171875 427.308594 C 1261.011719 439.3125 1292.378906 459.070312 1318.652344 486.191406 C 1350.074219 518.578125 1370.34375 557.589844 1380.820312 601.183594 C 1386.652344 625.472656 1389.371094 650.554688 1387.332031 675.636719 C 1384.21875 714.988281 1374.761719 752.527344 1354.660156 787.175781 C 1341.753906 809.429688 1326.179688 829.300781 1307.101562 846.171875 C 1279.921875 870.179688 1248.667969 887.617188 1213.789062 897.867188 C 1188.765625 905.285156 1163.285156 910.039062 1144.148438 909.019531 Z M 1279.015625 664.425781 C 1278.167969 654.914062 1277.769531 645.347656 1276.300781 635.949219 C 1270.183594 596.089844 1253.59375 562.0625 1220.640625 537.375 C 1201.617188 523.109375 1180.269531 514.332031 1156.265625 513.253906 C 1145.789062 512.804688 1135.257812 513.199219 1124.726562 513.199219 C 1110.003906 513.253906 1096.078125 516.992188 1082.882812 523.164062 C 1046.363281 540.207031 1024.167969 569.761719 1010.523438 606.734375 C 1005.539062 620.320312 1003.613281 634.53125 1001.632812 648.914062 C 999.480469 664.652344 1001.40625 679.996094 1003.332031 695.226562 C 1005.085938 709.496094 1010.238281 723.199219 1016.921875 736.164062 C 1029.546875 760.507812 1047.609375 779.816406 1071.332031 793.234375 C 1103.324219 811.351562 1137.863281 815.597656 1173.53125 807.617188 C 1217.695312 797.765625 1248.835938 771.605469 1266.558594 729.878906 C 1275.394531 708.988281 1279.015625 687.132812 1279.015625 664.425781 Z M 1279.015625 664.425781 "/><path style=" stroke:none;fill-rule:nonzero;fill:#010202;fill-opacity:1;" d="M 543.234375 599.824219 C 543.234375 631.589844 543.234375 662.21875 543.234375 693.925781 C 516.226562 694.945312 489.21875 694.207031 462.324219 694.378906 C 435.597656 694.492188 408.929688 694.433594 381.582031 694.433594 C 381.582031 726.59375 381.582031 757.792969 381.582031 790.007812 C 438.769531 790.007812 495.445312 790.007812 552.804688 790.007812 C 552.804688 822.847656 552.804688 854.667969 552.804688 887.050781 C 460.625 887.050781 368.84375 887.050781 276.4375 887.050781 C 276.4375 728.859375 276.4375 571.007812 276.4375 412.417969 C 368.671875 412.417969 460.625 412.417969 553.085938 412.417969 C 553.085938 444.972656 553.085938 476.90625 553.085938 509.972656 C 495.957031 509.972656 439.28125 509.972656 382.941406 509.972656 C 380.675781 518.125 380.054688 584.765625 381.980469 599.824219 C 435.429688 599.824219 489.105469 599.824219 543.234375 599.824219 Z M 543.234375 599.824219 "/><path style=" stroke:none;fill-rule:nonzero;fill:#010202;fill-opacity:1;" d="M 1166.683594 984.777344 C 1166.683594 1109.449219 1166.683594 1233.21875 1166.683594 1357.609375 C 1140.125 1357.609375 1113.96875 1357.609375 1086.28125 1357.609375 C 1038.605469 1283.210938 990.480469 1208.023438 942.296875 1132.890625 C 941.671875 1133.117188 941.105469 1133.285156 940.484375 1133.511719 C 940.484375 1207.964844 940.484375 1282.476562 940.484375 1357.609375 C 913.476562 1357.609375 887.316406 1357.609375 861.15625 1357.609375 C 859.007812 1350.53125 857.988281 1007.195312 860.023438 985.851562 C 867.101562 983.871094 916.078125 983.246094 938.953125 984.832031 C 986.742188 1059.796875 1034.699219 1134.984375 1082.65625 1210.230469 C 1085.148438 1195.679688 1084.863281 1181.074219 1084.863281 1166.523438 C 1084.921875 1151.234375 1084.808594 1136.003906 1084.808594 1120.71875 C 1084.808594 1105.769531 1084.808594 1090.824219 1084.808594 1075.875 C 1084.808594 1060.589844 1084.808594 1045.359375 1084.808594 1030.070312 C 1084.808594 1015.179688 1084.808594 1000.347656 1084.808594 984.945312 C 1112.664062 984.777344 1139.503906 984.777344 1166.683594 984.777344 Z M 1166.683594 984.777344 "/><path style=" stroke:none;fill-rule:nonzero;fill:#010202;fill-opacity:1;" d="M 536.214844 1077.574219 C 510.226562 1077.574219 484.972656 1077.574219 459.039062 1077.574219 C 458.757812 1075.648438 458.304688 1073.894531 458.304688 1072.082031 C 458.585938 1057.53125 451.792969 1047.054688 438.882812 1041.167969 C 417.535156 1031.375 395.964844 1031.769531 375.695312 1043.773438 C 357.347656 1054.644531 358.59375 1081.425781 369.804688 1092.292969 C 376.148438 1098.464844 382.773438 1103.617188 391.320312 1106.621094 C 417.480469 1115.847656 443.695312 1125.019531 469.34375 1135.4375 C 488.539062 1143.195312 507.28125 1152.367188 522.058594 1167.542969 C 533.324219 1179.148438 540.855469 1192.960938 544.253906 1208.816406 C 550.652344 1238.9375 546.066406 1267.304688 529.929688 1293.632812 C 518.433594 1312.371094 501.84375 1325.507812 482.878906 1335.925781 C 455.132812 1351.15625 425.238281 1358.0625 393.984375 1354.722656 C 352.253906 1350.304688 316.128906 1333.773438 290.59375 1298.726562 C 279.328125 1283.269531 273.042969 1265.773438 271.003906 1246.808594 C 270.71875 1243.917969 270.492188 1241.089844 270.152344 1237.464844 C 297.558594 1237.464844 324.679688 1237.464844 351.632812 1237.464844 C 352.140625 1238.144531 352.820312 1238.652344 352.820312 1239.164062 C 353.726562 1260.226562 366.296875 1272.117188 384.753906 1278.625 C 403.664062 1285.25 422.972656 1285.023438 441.769531 1278.34375 C 455.699219 1273.359375 464.136719 1263.113281 465.210938 1247.941406 C 466.230469 1234.292969 459.945312 1224.273438 448.734375 1217.140625 C 444.09375 1214.195312 439.28125 1211.421875 434.128906 1209.496094 C 414.761719 1202.363281 395.171875 1195.851562 375.863281 1188.660156 C 355.539062 1181.074219 335.664062 1172.636719 317.773438 1159.953125 C 302.371094 1149.027344 291.273438 1134.816406 285.5 1117.320312 C 272.25 1077.007812 278.082031 1038.960938 304.351562 1005.5 C 319.019531 986.8125 339.0625 974.867188 362.164062 968.128906 C 404.0625 955.957031 443.921875 959.808594 481.40625 982.679688 C 501.050781 994.683594 517.699219 1009.859375 527.324219 1031.488281 C 533.722656 1045.8125 537.6875 1060.644531 536.214844 1077.574219 Z M 536.214844 1077.574219 "/><path style=" stroke:none;fill-rule:nonzero;fill:#010202;fill-opacity:1;" d="M 1206.9375 1237.296875 C 1234.398438 1237.296875 1260.953125 1237.296875 1287.90625 1237.296875 C 1288.925781 1240.976562 1290.285156 1244.542969 1290.792969 1248.277344 C 1292.324219 1258.753906 1298.71875 1266.113281 1306.816406 1271.605469 C 1317.632812 1278.964844 1329.917969 1282.929688 1343.222656 1282.929688 C 1354.207031 1282.929688 1365.191406 1283.269531 1375.722656 1279.078125 C 1382.460938 1276.417969 1388.351562 1272.851562 1393.332031 1267.472656 C 1404.203125 1255.695312 1404.375 1237.070312 1393.671875 1225.121094 C 1386.992188 1217.648438 1378.726562 1212.722656 1369.496094 1209.324219 C 1354.09375 1203.664062 1338.523438 1198.339844 1323.066406 1192.792969 C 1303.25 1185.714844 1283.488281 1178.46875 1265.425781 1167.484375 C 1240.175781 1152.140625 1221.886719 1130.796875 1217.527344 1101.242188 C 1211.976562 1063.871094 1218.941406 1029.050781 1246.402344 1000.574219 C 1267.976562 978.207031 1294.359375 966.601562 1324.9375 962.582031 C 1355.453125 958.5625 1384.332031 962.75 1411.394531 977.132812 C 1441.6875 993.210938 1462.464844 1017.386719 1470.621094 1051.246094 C 1472.601562 1059.570312 1474.980469 1068.0625 1473.621094 1077.402344 C 1447.632812 1077.402344 1422.152344 1077.402344 1396.445312 1077.402344 C 1396.050781 1073.382812 1395.9375 1069.816406 1395.257812 1066.363281 C 1392.710938 1053.511719 1384.613281 1044.339844 1373.0625 1039.921875 C 1352.339844 1032.050781 1331.503906 1031.65625 1311.800781 1044.226562 C 1296.34375 1054.078125 1291.980469 1077.914062 1305.570312 1092.464844 C 1312.367188 1099.769531 1320.347656 1104.921875 1329.691406 1108.148438 C 1345.886719 1113.753906 1362.191406 1119.019531 1378.214844 1125.019531 C 1402.449219 1134.078125 1426.457031 1143.363281 1447.574219 1159.105469 C 1464.5625 1171.785156 1475.09375 1188.433594 1479.566406 1208.417969 C 1485.679688 1235.3125 1482.964844 1261.753906 1469.882812 1286.554688 C 1459.125 1306.878906 1443.160156 1322.050781 1423.339844 1333.433594 C 1394.464844 1350.023438 1363.324219 1357.777344 1330.199219 1354.777344 C 1300.757812 1352.117188 1273.863281 1341.871094 1250.195312 1323.296875 C 1225.679688 1304.105469 1212.542969 1278.796875 1206.996094 1248.902344 C 1206.371094 1245.5625 1206.9375 1241.9375 1206.9375 1237.296875 Z M 1206.9375 1237.296875 "/><path style=" stroke:none;fill-rule:nonzero;fill:#010202;fill-opacity:1;" d="M 724.984375 791.988281 C 776.398438 791.988281 826.28125 791.988281 875.824219 791.988281 C 878.03125 800.085938 878.425781 874.824219 876.503906 886.996094 C 790.835938 886.996094 705.113281 886.996094 618.710938 886.996094 C 618.710938 728.519531 618.710938 570.667969 618.710938 412.304688 C 654.210938 412.304688 689.089844 412.304688 724.984375 412.304688 C 724.984375 538.675781 724.984375 664.484375 724.984375 791.988281 Z M 724.984375 791.988281 "/><path style=" stroke:none;fill-rule:nonzero;fill:#010202;fill-opacity:1;" d="M 797.800781 1126.550781 C 797.800781 1151.460938 797.800781 1175.355469 797.800781 1200.492188 C 755.222656 1200.492188 712.871094 1200.492188 669.894531 1200.492188 C 669.894531 1225.972656 669.894531 1250.203125 669.894531 1275.570312 C 673.746094 1275.738281 677.539062 1276.078125 681.273438 1276.078125 C 719.324219 1276.136719 757.316406 1276.078125 795.363281 1276.078125 C 798.820312 1276.078125 802.328125 1276.078125 806.347656 1276.078125 C 806.347656 1301.898438 806.347656 1326.46875 806.347656 1350.929688 C 799.101562 1352.910156 602.289062 1353.648438 586.378906 1351.777344 C 584.511719 1344.699219 583.71875 998.195312 585.585938 979.226562 C 657.777344 979.226562 730.023438 979.226562 802.894531 979.226562 C 802.894531 1003.96875 802.894531 1028.484375 802.894531 1054.191406 C 792.25 1055.550781 781.265625 1054.585938 770.394531 1054.757812 C 759.355469 1054.925781 748.3125 1054.8125 737.273438 1054.8125 C 726.230469 1054.8125 715.191406 1054.8125 704.148438 1054.8125 C 693.109375 1054.8125 682.125 1054.8125 669.949219 1054.8125 C 668.707031 1078.59375 669.609375 1101.75 669.328125 1125.8125 C 680.765625 1127.058594 691.410156 1126.265625 701.996094 1126.4375 C 712.699219 1126.605469 723.457031 1126.492188 734.160156 1126.492188 C 744.578125 1126.492188 754.9375 1126.492188 765.355469 1126.492188 C 775.945312 1126.550781 786.589844 1126.550781 797.800781 1126.550781 Z M 797.800781 1126.550781 "/><path style=" stroke:none;fill-rule:nonzero;fill:#010202;fill-opacity:1;" d="M 1392.257812 410.378906 C 1422.605469 410.378906 1452.445312 410.378906 1483.53125 410.378906 C 1470.789062 455.109375 1458.277344 499.042969 1445.652344 543.433594 C 1427.644531 543.433594 1410.320312 543.433594 1392.199219 543.433594 C 1392.257812 499.042969 1392.257812 454.996094 1392.257812 410.378906 Z M 1392.257812 410.378906 "/></g></g></g></g></svg>