<svg xmlns="http://www.w3.org/2000/svg" xmlns:xlink="http://www.w3.org/1999/xlink" width="2380" zoomAndPan="magnify" viewBox="0 0 1784.88 1784.99993" height="2380" preserveAspectRatio="xMidYMid meet" version="1.2"><defs><clipPath id="d50735373d"><path d="M 0 0.0585938 L 1784.761719 0.0585938 L 1784.761719 1784.9375 L 0 1784.9375 Z M 0 0.0585938 "/></clipPath><clipPath id="639c599709"><path d="M 0 0.0585938 L 1784.761719 0.0585938 L 1784.761719 1784.9375 L 0 1784.9375 Z M 0 0.0585938 "/></clipPath><clipPath id="31e7e05b12"><path d="M 1 0.0585938 L 1784 0.0585938 L 1784 1783 L 1 1783 Z M 1 0.0585938 "/></clipPath><clipPath id="ee806bfe0e"><rect x="0" width="1785" y="0" height="1785"/></clipPath></defs><g id="a3c01055fe"><g clip-rule="nonzero" clip-path="url(#d50735373d)"><path style=" stroke:none;fill-rule:nonzero;fill:#ffffff;fill-opacity:1;" d="M 0 0.0585938 L 1784.878906 0.0585938 L 1784.878906 1784.941406 L 0 1784.941406 Z M 0 0.0585938 "/><g transform="matrix(1,0,0,1,0,-0.000000000000097387)"><g clip-path="url(#ee806bfe0e)"><g clip-rule="nonzero" clip-path="url(#639c599709)"><path style=" stroke:none;fill-rule:nonzero;fill:#ffffff;fill-opacity:1;" d="M 0 0.0585938 L 1785 0.0585938 L 1785 1785.058594 L 0 1785.058594 Z M 0 0.0585938 "/><rect x="0" width="1785" height="1785" y="0" style="fill:#8d8c8d;fill-opacity:1;stroke:none;"/></g><path style=" stroke:none;fill-rule:nonzero;fill:#010202;fill-opacity:1;" d="M 18.617188 17.660156 L 1767.160156 17.660156 L 1767.160156 1766.042969 L 18.617188 1766.042969 Z M 18.617188 17.660156 "/><g clip-rule="nonzero" clip-path="url(#31e7e05b12)"><path style="fill:none;stroke-width:6;stroke-linecap:butt;stroke-linejoin:miter;stroke:#ffffff;stroke-opacity:1;stroke-miterlimit:10;" d="M 141.360288 221.930309 L 454.64033 221.930309 L 454.64033 535.2102 L 141.360288 535.2102 Z M 141.360288 221.930309 " transform="matrix(5.581406,0,0,5.580897,-770.371911,-1220.910049)"/></g><path style=" stroke:none;fill-rule:nonzero;fill:#ffffff;fill-opacity:1;" d="M 1142.542969 913.558594 C 1082.320312 913.503906 1033.984375 898.378906 990.953125 867.125 C 943.621094 832.75 913.371094 786.648438 899.527344 729.949219 C 894.058594 707.457031 891.828125 684.464844 893.390625 661.359375 C 895.675781 628.542969 902.320312 596.789062 915.660156 566.371094 C 928.496094 537.074219 945.796875 511.066406 968.851562 489.078125 C 989.890625 468.984375 1014.003906 453.414062 1041.128906 442.476562 C 1058.597656 435.445312 1076.515625 430.140625 1094.933594 426.515625 C 1101.910156 425.121094 1109.109375 424.003906 1116.199219 424.113281 C 1135.679688 424.394531 1155.378906 423.949219 1174.636719 426.402344 C 1190.824219 428.523438 1206.839844 433.492188 1222.414062 438.738281 C 1257.742188 450.570312 1288.664062 470.046875 1314.5625 496.777344 C 1345.539062 528.703125 1365.519531 567.152344 1375.847656 610.125 C 1381.59375 634.070312 1384.273438 658.792969 1382.265625 683.515625 C 1379.195312 722.300781 1369.875 759.304688 1350.058594 793.457031 C 1337.335938 815.390625 1321.984375 834.980469 1303.175781 851.613281 C 1276.386719 875.273438 1245.574219 892.464844 1211.195312 902.566406 C 1186.582031 909.875 1161.410156 914.507812 1142.542969 913.558594 Z M 1275.492188 672.410156 C 1274.65625 663.035156 1274.265625 653.601562 1272.8125 644.335938 C 1266.785156 605.046875 1250.429688 571.507812 1217.949219 547.175781 C 1199.195312 533.109375 1178.152344 524.460938 1154.488281 523.398438 C 1144.160156 522.953125 1133.78125 523.34375 1123.398438 523.34375 C 1108.886719 523.398438 1095.15625 527.082031 1082.152344 533.164062 C 1046.152344 549.964844 1024.273438 579.097656 1010.820312 615.539062 C 1005.910156 628.933594 1004.011719 642.941406 1002.058594 657.117188 C 999.9375 672.632812 1001.835938 687.757812 1003.734375 702.769531 C 1005.464844 716.832031 1010.542969 730.339844 1017.128906 743.121094 C 1029.574219 767.117188 1047.378906 786.148438 1070.765625 799.375 C 1102.300781 817.234375 1136.347656 821.417969 1171.511719 813.550781 C 1215.046875 803.839844 1245.742188 778.054688 1263.210938 736.925781 C 1271.976562 716.386719 1275.546875 694.789062 1275.492188 672.410156 Z M 1275.492188 672.410156 "/><path style=" stroke:none;fill-rule:nonzero;fill:#ffffff;fill-opacity:1;" d="M 550.246094 608.730469 C 550.246094 640.039062 550.246094 670.234375 550.246094 701.484375 C 523.621094 702.488281 496.996094 701.765625 470.484375 701.933594 C 444.140625 702.042969 417.855469 701.988281 390.894531 701.988281 C 390.894531 733.6875 390.894531 764.4375 390.894531 796.195312 C 447.269531 796.195312 503.136719 796.195312 559.675781 796.195312 C 559.675781 828.5625 559.675781 859.925781 559.675781 891.851562 C 468.8125 891.851562 378.335938 891.851562 287.25 891.851562 C 287.25 735.917969 287.25 580.324219 287.25 424.003906 C 378.167969 424.003906 468.8125 424.003906 559.957031 424.003906 C 559.957031 456.09375 559.957031 487.570312 559.957031 520.164062 C 503.640625 520.164062 447.769531 520.164062 392.234375 520.164062 C 390.003906 528.199219 389.386719 593.886719 391.285156 608.730469 C 443.917969 608.730469 496.832031 608.730469 550.246094 608.730469 Z M 550.246094 608.730469 "/><path style=" stroke:none;fill-rule:nonzero;fill:#ffffff;fill-opacity:1;" d="M 1164.757812 988.175781 C 1164.757812 1111.066406 1164.757812 1233.066406 1164.757812 1355.679688 C 1138.582031 1355.679688 1112.792969 1355.679688 1085.5 1355.679688 C 1038.503906 1282.34375 991.0625 1208.230469 943.566406 1134.171875 C 942.953125 1134.394531 942.394531 1134.5625 941.78125 1134.785156 C 941.78125 1208.175781 941.78125 1281.621094 941.78125 1355.679688 C 915.15625 1355.679688 889.371094 1355.679688 863.585938 1355.679688 C 861.464844 1348.703125 860.457031 1010.277344 862.46875 989.238281 C 869.445312 987.285156 917.722656 986.667969 940.273438 988.230469 C 987.378906 1062.125 1034.65625 1136.238281 1081.929688 1210.40625 C 1084.386719 1196.066406 1084.105469 1181.667969 1084.105469 1167.324219 C 1084.160156 1152.253906 1084.050781 1137.242188 1084.050781 1122.171875 C 1084.050781 1107.441406 1084.050781 1092.707031 1084.050781 1077.972656 C 1084.050781 1062.90625 1084.050781 1047.890625 1084.050781 1032.824219 C 1084.050781 1018.144531 1084.050781 1003.523438 1084.050781 988.34375 C 1111.566406 988.175781 1137.964844 988.175781 1164.757812 988.175781 Z M 1164.757812 988.175781 "/><path style=" stroke:none;fill-rule:nonzero;fill:#ffffff;fill-opacity:1;" d="M 543.324219 1079.703125 C 517.703125 1079.703125 492.8125 1079.703125 467.25 1079.703125 C 466.96875 1077.804688 466.523438 1076.074219 466.523438 1074.289062 C 466.800781 1059.945312 460.105469 1049.621094 447.378906 1043.816406 C 426.335938 1034.164062 405.070312 1034.554688 385.089844 1046.386719 C 367.007812 1057.101562 368.234375 1083.5 379.285156 1094.214844 C 385.539062 1100.296875 392.066406 1105.375 400.496094 1108.332031 C 426.28125 1117.429688 452.125 1126.472656 477.40625 1136.738281 C 496.328125 1144.386719 514.800781 1153.425781 529.371094 1168.382812 C 540.476562 1179.824219 547.898438 1193.441406 551.25 1209.070312 C 557.554688 1238.757812 553.035156 1266.71875 537.128906 1292.671875 C 525.796875 1311.144531 509.445312 1324.089844 490.746094 1334.359375 C 463.398438 1349.371094 433.929688 1356.179688 403.117188 1352.886719 C 361.984375 1348.535156 326.375 1332.238281 301.203125 1297.691406 C 290.09375 1282.457031 283.898438 1265.210938 281.890625 1246.515625 C 281.613281 1243.671875 281.386719 1240.878906 281.054688 1237.308594 C 308.066406 1237.308594 334.800781 1237.308594 361.371094 1237.308594 C 361.871094 1237.976562 362.542969 1238.480469 362.542969 1238.980469 C 363.433594 1259.742188 375.824219 1271.464844 394.019531 1277.882812 C 412.664062 1284.410156 431.695312 1284.1875 450.226562 1277.601562 C 463.957031 1272.691406 472.273438 1262.589844 473.332031 1247.632812 C 474.335938 1234.183594 468.140625 1224.304688 457.089844 1217.273438 C 452.515625 1214.371094 447.769531 1211.636719 442.691406 1209.738281 C 423.601562 1202.707031 404.289062 1196.289062 385.257812 1189.199219 C 365.222656 1181.722656 345.628906 1173.40625 327.992188 1160.90625 C 312.8125 1150.132812 301.871094 1136.125 296.179688 1118.882812 C 283.117188 1079.144531 288.867188 1041.640625 314.765625 1008.660156 C 329.222656 990.242188 348.980469 978.464844 371.75 971.824219 C 413.054688 959.824219 452.347656 963.621094 489.296875 986.167969 C 508.664062 998 525.074219 1012.957031 534.5625 1034.273438 C 540.867188 1048.339844 544.71875 1063.015625 543.324219 1079.703125 Z M 543.324219 1079.703125 "/><path style=" stroke:none;fill-rule:nonzero;fill:#ffffff;fill-opacity:1;" d="M 1204.496094 1237.085938 C 1231.566406 1237.085938 1257.742188 1237.085938 1284.3125 1237.085938 C 1285.316406 1240.710938 1286.65625 1244.226562 1287.15625 1247.910156 C 1288.664062 1258.234375 1294.972656 1265.492188 1302.953125 1270.90625 C 1313.613281 1278.160156 1325.726562 1282.066406 1338.839844 1282.066406 C 1349.667969 1282.066406 1360.496094 1282.402344 1370.878906 1278.269531 C 1377.519531 1275.648438 1383.324219 1272.132812 1388.238281 1266.832031 C 1398.953125 1255.222656 1399.121094 1236.859375 1388.570312 1225.085938 C 1381.984375 1217.71875 1373.835938 1212.863281 1364.738281 1209.515625 C 1349.558594 1203.933594 1334.207031 1198.6875 1318.972656 1193.21875 C 1299.4375 1186.242188 1279.957031 1179.097656 1262.152344 1168.273438 C 1237.257812 1153.148438 1219.230469 1132.109375 1214.933594 1102.976562 C 1209.464844 1066.140625 1216.328125 1031.820312 1243.398438 1003.746094 C 1264.664062 981.703125 1290.671875 970.261719 1320.8125 966.300781 C 1350.898438 962.335938 1379.363281 966.464844 1406.042969 980.640625 C 1435.902344 996.492188 1456.386719 1020.320312 1464.421875 1053.695312 C 1466.375 1061.898438 1468.71875 1070.269531 1467.378906 1079.480469 C 1441.761719 1079.480469 1416.644531 1079.480469 1391.304688 1079.480469 C 1390.914062 1075.515625 1390.804688 1072 1390.132812 1068.597656 C 1387.621094 1055.929688 1379.640625 1046.886719 1368.253906 1042.535156 C 1347.828125 1034.777344 1327.289062 1034.386719 1307.863281 1046.777344 C 1292.625 1056.484375 1288.328125 1079.980469 1301.722656 1094.324219 C 1308.421875 1101.523438 1316.292969 1106.601562 1325.5 1109.785156 C 1341.464844 1115.308594 1357.539062 1120.5 1373.332031 1126.414062 C 1397.222656 1135.34375 1420.886719 1144.496094 1441.707031 1160.011719 C 1458.449219 1172.511719 1468.832031 1188.921875 1473.242188 1208.621094 C 1479.269531 1235.128906 1476.589844 1261.195312 1463.695312 1285.636719 C 1453.09375 1305.671875 1437.351562 1320.628906 1417.816406 1331.847656 C 1389.351562 1348.199219 1358.65625 1355.84375 1326.003906 1352.886719 C 1296.980469 1350.265625 1270.46875 1340.164062 1247.136719 1321.859375 C 1222.972656 1302.9375 1210.023438 1277.992188 1204.550781 1248.523438 C 1203.9375 1245.289062 1204.496094 1241.714844 1204.496094 1237.085938 Z M 1204.496094 1237.085938 "/><path style=" stroke:none;fill-rule:nonzero;fill:#ffffff;fill-opacity:1;" d="M 729.351562 798.148438 C 780.03125 798.148438 829.203125 798.148438 878.039062 798.148438 C 880.21875 806.128906 880.609375 879.796875 878.710938 891.792969 C 794.261719 891.792969 709.761719 891.792969 624.589844 891.792969 C 624.589844 735.585938 624.589844 579.988281 624.589844 423.890625 C 659.585938 423.890625 693.964844 423.890625 729.351562 423.890625 C 729.351562 548.457031 729.351562 672.464844 729.351562 798.148438 Z M 729.351562 798.148438 "/><path style=" stroke:none;fill-rule:nonzero;fill:#ffffff;fill-opacity:1;" d="M 801.128906 1127.921875 C 801.128906 1152.476562 801.128906 1176.03125 801.128906 1200.808594 C 759.15625 1200.808594 717.40625 1200.808594 675.042969 1200.808594 C 675.042969 1225.921875 675.042969 1249.808594 675.042969 1274.8125 C 678.839844 1274.980469 682.578125 1275.3125 686.261719 1275.3125 C 723.769531 1275.371094 761.222656 1275.3125 798.730469 1275.3125 C 802.132812 1275.3125 805.59375 1275.3125 809.554688 1275.3125 C 809.554688 1300.761719 809.554688 1324.984375 809.554688 1349.09375 C 802.414062 1351.046875 608.402344 1351.773438 592.71875 1349.929688 C 590.878906 1342.953125 590.09375 1001.402344 591.9375 982.707031 C 663.101562 982.707031 734.320312 982.707031 806.152344 982.707031 C 806.152344 1007.09375 806.152344 1031.261719 806.152344 1056.597656 C 795.660156 1057.9375 784.832031 1056.988281 774.113281 1057.15625 C 763.230469 1057.324219 752.347656 1057.210938 741.464844 1057.210938 C 730.578125 1057.210938 719.695312 1057.210938 708.8125 1057.210938 C 697.929688 1057.210938 687.101562 1057.210938 675.101562 1057.210938 C 673.871094 1080.652344 674.765625 1103.476562 674.488281 1127.195312 C 685.761719 1128.425781 696.253906 1127.644531 706.691406 1127.808594 C 717.238281 1127.976562 727.84375 1127.867188 738.394531 1127.867188 C 748.664062 1127.867188 758.878906 1127.867188 769.148438 1127.867188 C 779.585938 1127.921875 790.078125 1127.921875 801.128906 1127.921875 Z M 801.128906 1127.921875 "/><path style=" stroke:none;fill-rule:nonzero;fill:#ffffff;fill-opacity:1;" d="M 1387.175781 422.050781 C 1417.09375 422.050781 1446.507812 422.050781 1477.148438 422.050781 C 1464.589844 466.140625 1452.253906 509.445312 1439.808594 553.203125 C 1422.058594 553.203125 1404.980469 553.203125 1387.121094 553.203125 C 1387.175781 509.445312 1387.175781 466.027344 1387.175781 422.050781 Z M 1387.175781 422.050781 "/></g></g></g></g></svg>